<svg height="60" viewBox="0 0 511.99 511.99" width="60" xmlns="http://www.w3.org/2000/svg"><path d="M360.683 251.085v20.079c0 18.643-15.166 33.81-33.809 33.81h-6.195v-.001h-1.084c6.996-10.558 11.084-23.204 11.084-36.791v-17.096h-30v17.096c0 17.856-12.787 32.775-29.684 36.097v-53.193h-30v53.307c-17.212-3.067-30.323-18.131-30.323-36.211v-17.096h-30v17.096c0 13.588 4.088 26.233 11.085 36.792h-7.279c-18.643 0-33.81-15.167-33.81-33.81v-20.079h-30v20.079c0 35.185 28.625 63.81 63.81 63.81h6.194V496.99h130.007V334.974h6.195c35.185 0 63.809-28.625 63.809-63.81v-20.079z" fill="#8c4a50"/><path d="M360.683 251.085v20.079c0 18.643-15.166 33.81-33.809 33.81h-6.195v-.001h-1.084c6.996-10.558 11.084-23.204 11.084-36.791v-17.096h-30v17.096c0 17.856-12.787 32.775-29.684 36.097v-53.193h-15.32V496.99h65.003V334.974h6.195c35.185 0 63.809-28.625 63.809-63.81v-20.079z" fill="#66333e"/><path d="M441.556 131.863c-5.471-43.08-42.354-76.498-86.896-76.498-.401 0-.804.003-1.208.009a114.284 114.284 0 00-36.354-37.418C298.767 6.209 277.523 0 255.664 0s-43.103 6.209-61.434 17.956a114.314 114.314 0 00-36.354 37.418 81.381 81.381 0 00-1.208-.009c-44.574 0-81.479 33.464-86.909 76.59-32.655 4.655-57.846 32.805-57.846 66.727 0 37.166 30.236 67.403 67.402 67.403h353.357c37.166 0 67.402-30.237 67.402-67.403.002-34.155-25.534-62.458-58.518-66.819z" fill="#00cc76"/><path d="M190.672 364.37h44.32v30h-44.32zM276.177 422.573h44.5v30h-44.5z" fill="#c1674c"/><path d="M91.314 481.99h329.361v30H91.314z" fill="#a5e887"/><path d="M276.177 422.573h44.5v30h-44.5z" fill="#8c4a50"/><path d="M441.556 131.863c-5.471-43.08-42.354-76.498-86.896-76.498-.401 0-.804.003-1.208.009a114.284 114.284 0 00-36.354-37.418C298.77 6.211 277.531.002 255.675 0v266.085h176.999c37.166 0 67.402-30.237 67.402-67.403 0-34.155-25.536-62.458-58.52-66.819z" fill="#00aa95"/><path d="M255.675 481.99h165v30h-165z" fill="#00cc76"/></svg>